<svg xmlns="http://www.w3.org/2000/svg" xmlns:xlink="http://www.w3.org/1999/xlink" id="processonSvg1000" viewBox="65.0 505.0 607.0 326.0" width="607.0" height="326.0"><defs id="ProcessOnDefs1001"/><g id="ProcessOnG1002"><path id="ProcessOnPath1003" d="M65.0 505.0H672.0V831.0H65.0V505.0Z" fill="none"/><g id="ProcessOnG1004"><g id="ProcessOnG1005" transform="matrix(1.0,0.0,0.0,1.0,115.0,571.0)" opacity="1.0"><path id="ProcessOnPath1006" d="M0.0 0.0L100.0 0.0L100.0 70.0L0.0 70.0Z" stroke="#323232" stroke-width="2.0" stroke-dasharray="none" opacity="1.0" fill="#ffffff"/><g id="ProcessOnG1007" transform="matrix(1.0,0.0,0.0,1.0,10.0,20.625)"><text id="ProcessOnText1008" fill="#000000" font-size="23" x="39.0" y="23.575000000000003" font-family="微软雅黑" font-weight="normal" font-style="normal" text-decoration="none" family="微软雅黑" text-anchor="middle" size="23">f(x,y)</text></g></g><g id="ProcessOnG1009" transform="matrix(1.0,0.0,0.0,1.0,85.0,525.0)" opacity="1.0"><path id="ProcessOnPath1010" d="M0.0 0.0L160.0 0.0L160.0 40.0L0.0 40.0Z" stroke="none" stroke-width="0.0" stroke-dasharray="none" opacity="1.0" fill="none"/><g id="ProcessOnG1011" transform="matrix(1.0,0.0,0.0,1.0,0.0,9.375)"><text id="ProcessOnText1012" fill="#000000" font-size="17" x="79.0" y="17.425" font-family="微软雅黑" font-weight="normal" font-style="normal" text-decoration="none" family="微软雅黑" text-anchor="middle" size="17">空域</text></g></g><g id="ProcessOnG1013" transform="matrix(1.0,0.0,0.0,1.0,115.0,741.0)" opacity="1.0"><path id="ProcessOnPath1014" d="M0.0 0.0L100.0 0.0L100.0 70.0L0.0 70.0Z" stroke="#323232" stroke-width="2.0" stroke-dasharray="none" opacity="1.0" fill="#ffffff"/><g id="ProcessOnG1015" transform="matrix(1.0,0.0,0.0,1.0,10.0,20.625)"><text id="ProcessOnText1016" fill="#000000" font-size="23" x="39.0" y="23.575000000000003" font-family="微软雅黑" font-weight="normal" font-style="normal" text-decoration="none" family="微软雅黑" text-anchor="middle" size="23">g(x,y)</text></g></g><g id="ProcessOnG1017" transform="matrix(1.0,0.0,0.0,1.0,290.0,525.0)" opacity="1.0"><path id="ProcessOnPath1018" d="M0.0 0.0L160.0 0.0L160.0 40.0L0.0 40.0Z" stroke="none" stroke-width="0.0" stroke-dasharray="none" opacity="1.0" fill="none"/><g id="ProcessOnG1019" transform="matrix(1.0,0.0,0.0,1.0,0.0,9.375)"><text id="ProcessOnText1020" fill="#000000" font-size="17" x="79.0" y="17.425" font-family="微软雅黑" font-weight="normal" font-style="normal" text-decoration="none" family="微软雅黑" text-anchor="middle" size="17">频域</text></g></g><g id="ProcessOnG1021" transform="matrix(1.0,0.0,0.0,1.0,320.0,571.0)" opacity="1.0"><path id="ProcessOnPath1022" d="M0.0 0.0L100.0 0.0L100.0 70.0L0.0 70.0Z" stroke="#323232" stroke-width="2.0" stroke-dasharray="none" opacity="1.0" fill="#ffffff"/><g id="ProcessOnG1023" transform="matrix(1.0,0.0,0.0,1.0,10.0,20.625)"><text id="ProcessOnText1024" fill="#000000" font-size="23" x="39.0" y="23.575000000000003" font-family="微软雅黑" font-weight="normal" font-style="normal" text-decoration="none" family="微软雅黑" text-anchor="middle" size="23">F(u,v)</text></g></g><g id="ProcessOnG1025" transform="matrix(1.0,0.0,0.0,1.0,320.0,741.0)" opacity="1.0"><path id="ProcessOnPath1026" d="M0.0 0.0L100.0 0.0L100.0 70.0L0.0 70.0Z" stroke="#323232" stroke-width="2.0" stroke-dasharray="none" opacity="1.0" fill="#ffffff"/><g id="ProcessOnG1027" transform="matrix(1.0,0.0,0.0,1.0,10.0,20.625)"><text id="ProcessOnText1028" fill="#000000" font-size="23" x="39.0" y="23.575000000000003" font-family="微软雅黑" font-weight="normal" font-style="normal" text-decoration="none" family="微软雅黑" text-anchor="middle" size="23">G(u,v)</text></g></g><g id="ProcessOnG1029" transform="matrix(1.0,0.0,0.0,1.0,222.0,576.0)" opacity="1.0"><path id="ProcessOnPath1030" d="M0.0 19.8L60.0 19.8L60.0 0.0L90.0 30.0L60.0 60.0L60.0 40.2L0.0 40.2L0.0 19.8Z" stroke="#323232" stroke-width="2.0" stroke-dasharray="none" opacity="1.0" fill="#ffffff"/></g><g id="ProcessOnG1031" transform="matrix(1.0,0.0,0.0,1.0,222.0,746.0)" opacity="1.0"><path id="ProcessOnPath1032" d="M0.0 30.0L30.0 0.0L30.0 19.8L90.0 19.8L90.0 40.2L30.0 40.2L30.0 60.0L0.0 30.0Z" stroke="#323232" stroke-width="2.0" stroke-dasharray="none" opacity="1.0" fill="#ffffff"/></g><g id="ProcessOnG1033" transform="matrix(1.0,0.0,0.0,1.0,440.0,662.0)" opacity="1.0"><path id="ProcessOnPath1034" d="M0.0 0.0L212.0 0.0L212.0 62.0L0.0 62.0Z" stroke="#323232" stroke-width="2.0" stroke-dasharray="none" opacity="1.0" fill="#ffffff"/><g id="ProcessOnG1035" transform="matrix(1.0,0.0,0.0,1.0,10.0,22.875)"><text id="ProcessOnText1036" fill="#000000" font-size="13" x="95.0" y="13.325" font-family="微软雅黑" font-weight="normal" font-style="normal" text-decoration="none" family="微软雅黑" text-anchor="middle" size="13">G(u,v)=F(u,v)*H(u,v)</text></g></g><g id="ProcessOnG1037" transform="matrix(0.9063077870366499,0.42261826174069944,-0.42261826174069944,0.9063077870366499,441.77599485440743,603.4572836978192)" opacity="1.0"><path id="ProcessOnPath1038" d="M0.0 10.756937675219818L31.90422246940608 10.756937675219818L31.90422246940608 0.0L48.2026128864058 16.298390416999723L31.90422246940608 32.596780833999446L31.90422246940608 21.83984315877963L0.0 21.83984315877963L0.0 10.756937675219818Z" stroke="#323232" stroke-width="2.0" stroke-dasharray="none" opacity="1.0" fill="#ffffff"/></g><g id="ProcessOnG1039" transform="matrix(-0.7660444431189779,0.6427876096865395,-0.6427876096865395,-0.7660444431189779,485.67027442503957,754.2916606687768)" opacity="1.0"><path id="ProcessOnPath1040" d="M0.0 10.756937675219818L31.90422246940608 10.756937675219818L31.90422246940608 0.0L48.2026128864058 16.298390416999723L31.90422246940608 32.596780833999446L31.90422246940608 21.83984315877963L0.0 21.83984315877963L0.0 10.756937675219818Z" stroke="#323232" stroke-width="2.0" stroke-dasharray="none" opacity="1.0" fill="#ffffff"/></g></g></g></svg>